<mxfile host="app.diagrams.net" modified="2023-04-20T23:27:07.894Z" agent="Mozilla/5.0 (Windows NT 10.0; Win64; x64) AppleWebKit/537.36 (KHTML, like Gecko) Chrome/112.0.0.0 Safari/537.36" version="21.2.1" etag="L_bHZvqi9vczqUDedHg4" type="github">
  <diagram name="PÃ¡gina-1" id="fE384wR1jabPb37ffEca">
    <mxGraphModel>
      <root>
        <mxCell id="0" />
        <mxCell id="1" parent="0" />
      </root>
    </mxGraphModel>
  </diagram>
</mxfile>
